#!OML:ASF H:\Dans Jumps\Project 1\Capture day 1\Session 1\subject.ASF
:FULLY-SPECIFIED
:DEGREES
511
root 1.03452 17.664 13.1455 6.02049 3.49871 -2.27393
lowerback -5.67458 -0.966161 0.745299
upperback 0.3337 -1.39476 1.57654
thorax 3.54841 -0.694053 1.087
lowerneck -10.7937 -4.90991 -4.73005
upperneck 11.7436 -6.55193 4.94701
head 5.63638 -3.05831 1.78465
rclavicle 4.43538e-015 -2.38542e-015
rhumerus -26.2066 -17.7919 -82.0981
rradius 22.0462
rwrist 41.4053
rhand -18.6022 -25.5227
rfingers 7.12502
rthumb 7.68911 -55.3629
lclavicle 4.43538e-015 -2.38542e-015
lhumerus -24.873 0.0469793 90.6966
lradius 16.2934
lwrist -2.4706
lhand -24.0485 -5.49017
lfingers 7.12502
lthumb 2.43056 24.4757
rfemur -11.8728 -3.74374 21.5472
rtibia 20.4816
rfoot -14.2051 1.68116
rtoes 17.4157
lfemur -6.37235 7.86584 -16.8614
ltibia 15.0311
lfoot -11.5659 6.77469
ltoes -6.42994
512
root 1.03451 17.6645 13.1427 6.03397 3.47004 -2.27295
lowerback -5.69653 -0.969533 0.739929
upperback 0.330148 -1.39939 1.58132
thorax 3.55741 -0.696477 1.0942
lowerneck -10.7311 -4.91254 -4.71009
upperneck 11.6077 -6.55341 4.93292
head 5.58218 -3.06127 1.77934
rclavicle -3.18055e-015 -1.98785e-015
rhumerus -26.2315 -17.8227 -82.0666
rradius 22.0451
rwrist 41.4044
rhand -18.6035 -25.5276
rfingers 7.12502
rthumb 7.68791 -55.3678
lclavicle -3.18055e-015 -1.98785e-015
lhumerus -24.9089 -0.0214805 90.7444
lradius 16.3718
lwrist -2.32895
lhand -24.017 -5.46882
lfingers 7.12502
lthumb 2.46097 24.4967
rfemur -11.8985 -3.72691 21.5454
rtibia 20.4745
rfoot -14.187 1.6959
rtoes 17.4262
lfemur -6.3807 7.88008 -16.8658
ltibia 15.0086
lfoot -11.5556 6.77956
ltoes -6.39243
513
root 1.03455 17.6651 13.14 6.04669 3.44091 -2.2744
lowerback -5.71845 -0.971437 0.735365
upperback 0.326451 -1.40217 1.58783
thorax 3.56624 -0.697984 1.10291
lowerneck -10.6564 -4.91722 -4.69317
upperneck 11.4562 -6.55694 4.91834
head 5.5213 -3.06572 1.7746
rclavicle -2.77429e-014 1.92821e-014
rhumerus -26.2619 -17.8558 -82.0275
rradius 22.0447
rwrist 41.401
rhand -18.6043 -25.5327
rfingers 7.12502
rthumb 7.68705 -55.373
lclavicle -2.77429e-014 1.92821e-014
lhumerus -24.945 -0.106446 90.7993
lradius 16.4582
lwrist -2.17838
lhand -23.9909 -5.46386
lfingers 7.12502
lthumb 2.48611 24.5014
rfemur -11.9249 -3.71441 21.546
rtibia 20.4685
rfoot -14.1687 1.71624
rtoes 17.4344
lfemur -6.38832 7.89384 -16.8676
ltibia 14.9866
lfoot -11.546 6.78738
ltoes -6.36687
514
root 1.03464 17.6656 13.1372 6.05838 3.41114 -2.2763
lowerback -5.73765 -0.971448 0.732174
upperback 0.321308 -1.40242 1.59379
thorax 3.57195 -0.698208 1.11055
lowerneck -10.573 -4.92331 -4.67821
upperneck 11.2957 -6.56212 4.90441
head 5.45638 -3.07122 1.77054
rclavicle 1.4238e-014 1.07344e-014
rhumerus -26.301 -17.8902 -81.9836
rradius 22.0501
rwrist 41.3895
rhand -18.6046 -25.5467
rfingers 7.12502
rthumb 7.68678 -55.387
lclavicle 1.4238e-014 1.07344e-014
lhumerus -24.9788 -0.214481 90.8601
lradius 16.5479
lwrist -2.01524
lhand -23.9786 -5.46753
lfingers 7.12502
lthumb 2.49799 24.4976
rfemur -11.9515 -3.70443 21.5468
rtibia 20.4645
rfoot -14.1509 1.73973
rtoes 17.4432
lfemur -6.39381 7.90569 -16.8696
ltibia 14.9622
lfoot -11.5331 6.80071
ltoes -6.35852
515
root 1.03484 17.6661 13.1346 6.06897 3.38006 -2.27573
lowerback -5.75454 -0.970295 0.727466
upperback 0.314188 -1.40089 1.59853
thorax 3.5743 -0.697566 1.118
lowerneck -10.484 -4.92857 -4.66105
upperneck 11.1297 -6.56624 4.88811
head 5.3887 -3.07638 1.7657
rclavicle 5.2181e-015 -3.12092e-014
rhumerus -26.3465 -17.9313 -81.9345
rradius 22.0557
rwrist 41.3762
rhand -18.606 -25.566
rfingers 7.12502
rthumb 7.68542 -55.4063
lclavicle 5.2181e-015 -3.12092e-014
lhumerus -25.0161 -0.331677 90.9228
lradius 16.643
lwrist -1.85155
lhand -23.9778 -5.48112
lfingers 7.12502
lthumb 2.4988 24.484
rfemur -11.978 -3.69927 21.544
rtibia 20.4635
rfoot -14.1351 1.77005
rtoes 17.4659
lfemur -6.39487 7.91784 -16.875
ltibia 14.9338
lfoot -11.5189 6.81685
ltoes -6.34856
516
root 1.035 17.6667 13.1322 6.0773 3.3545 -2.27409
lowerback -5.76356 -0.97102 0.725007
upperback 0.305048 -1.40173 1.60027
thorax 3.57004 -0.698041 1.12102
lowerneck -10.3994 -4.93204 -4.64236
upperneck 10.9621 -6.56813 4.87308
head 5.32123 -3.08024 1.76116
rclavicle -3.10601e-016 -1.31198e-014
rhumerus -26.3892 -17.9868 -81.8854
rradius 22.0527
rwrist 41.3711
rhand -18.6083 -25.5921
rfingers 7.12502
rthumb 7.68327 -55.4326
lclavicle -3.10601e-016 -1.31198e-014
lhumerus -25.0577 -0.481466 90.9888
lradius 16.7454
lwrist -1.66157
lhand -23.9876 -5.50216
lfingers 7.12502
lthumb 2.48937 24.4631
rfemur -12.0018 -3.69569 21.5402
rtibia 20.4653
rfoot -14.1221 1.79703
rtoes 17.504
lfemur -6.39127 7.93021 -16.8808
ltibia 14.9017
lfoot -11.5057 6.82799
ltoes -6.33191
517
root 1.03511 17.6671 13.1299 6.08542 3.32929 -2.26551
lowerback -5.77171 -0.971816 0.715997
upperback 0.2959 -1.40209 1.59864
thorax 3.56534 -0.698363 1.1243
lowerneck -10.3201 -4.93126 -4.61746
upperneck 10.7942 -6.5647 4.85545
head 5.25408 -3.08131 1.75519
rclavicle 1.98536e-014 5.56597e-015
rhumerus -26.4305 -18.0527 -81.8359
rradius 22.0473
rwrist 41.372
rhand -18.6061 -25.6254
rfingers 7.12502
rthumb 7.68533 -55.4657
lclavicle 1.98536e-014 5.56597e-015
lhumerus -25.0961 -0.637842 91.0523
lradius 16.8479
lwrist -1.47509
lhand -24.0011 -5.52375
lfingers 7.12502
lthumb 2.47627 24.4416
rfemur -12.024 -3.68999 21.5284
rtibia 20.4684
rfoot -14.1119 1.82229
rtoes 17.5524
lfemur -6.38643 7.93888 -16.8943
ltibia 14.8682
lfoot -11.4907 6.84122
ltoes -6.30446
518
root 1.03506 17.6676 13.1273 6.09296 3.30398 -2.2553
lowerback -5.77618 -0.972449 0.70376
upperback 0.28734 -1.40191 1.59606
thorax 3.55922 -0.69848 1.12852
lowerneck -10.2444 -4.92694 -4.58903
upperneck 10.6206 -6.55668 4.83822
head 5.18551 -3.07996 1.74917
rclavicle 3.15571e-015 -2.98177e-015
rhumerus -26.4664 -18.128 -81.7864
rradius 22.0372
rwrist 41.3803
rhand -18.6024 -25.6595
rfingers 7.12502
rthumb 7.68893 -55.4997
lclavicle 3.15571e-015 -2.98177e-015
lhumerus -25.1263 -0.798933 91.1139
lradius 16.944
lwrist -1.29298
lhand -24.0174 -5.55216
lfingers 7.12502
lthumb 2.46053 24.4134
rfemur -12.0463 -3.67792 21.5154
rtibia 20.4719
rfoot -14.1019 1.8409
rtoes 17.6079
lfemur -6.38166 7.94453 -16.9093
ltibia 14.8343
lfoot -11.4722 6.8569
ltoes -6.27982
